<?xml version="1.0" encoding="utf-8"?>
<!-- Generator: Adobe Illustrator 24.0.0, SVG Export Plug-In . SVG Version: 6.00 Build 0)  -->
<svg version="1.1" xmlns="http://www.w3.org/2000/svg" xmlns:xlink="http://www.w3.org/1999/xlink" x="0px" y="0px"
	 viewBox="0 0 436.2 500" style="enable-background:new 0 0 436.2 500;" xml:space="preserve">
<style type="text/css">
	.st0{fill:#FF3939;}
	.st1{fill:url(#SVGID_1_);}
	.st2{opacity:0.4;fill:url(#SVGID_2_);}
	.st3{fill:#FC6E20;}
	.st4{opacity:0.4;fill:url(#SVGID_3_);}
	.st5{opacity:0.5;}
	.st6{opacity:0.1;fill:#1B194F;}
	.st7{opacity:0.4;fill:url(#SVGID_4_);}
	.st8{opacity:0.5;fill:#FFFFFF;}
	.st9{fill:#FFFFFF;}
	.st10{opacity:0.5;fill:url(#SVGID_5_);}
	.st11{opacity:0.5;fill:url(#SVGID_6_);}
</style>
<g id="BACKGROUND">
</g>
<g id="OBJECTS">
	<g>
		<g>
			<polygon class="st0" points="218.1,213.04 298.98,378.77 174.04,122.76 5.77,467.53 95.94,467.53 137.22,378.77 			"/>
			<linearGradient id="SVGID_1_" gradientUnits="userSpaceOnUse" x1="406.9664" y1="423.8904" x2="113.9852" y2="422.5767">
				<stop  offset="0.0408" style="stop-color:#EBEBEC"/>
				<stop  offset="0.2244" style="stop-color:#F9F9F9"/>
				<stop  offset="0.387" style="stop-color:#FFFFFF"/>
				<stop  offset="0.5354" style="stop-color:#F5F5F5"/>
				<stop  offset="0.7886" style="stop-color:#DADBDC"/>
				<stop  offset="0.8189" style="stop-color:#D6D7D8"/>
			</linearGradient>
			<polygon class="st1" points="137.22,378.77 95.94,467.53 430.43,467.53 387.11,378.77 298.98,378.77 			"/>
			<linearGradient id="SVGID_2_" gradientUnits="userSpaceOnUse" x1="218.6968" y1="375.5885" x2="263.4846" y2="468.1498">
				<stop  offset="0" style="stop-color:#FFFFFF"/>
				<stop  offset="1" style="stop-color:#FFFFFF;stop-opacity:0"/>
			</linearGradient>
			<polygon class="st2" points="408.77,423.15 311.76,423.15 116.58,423.15 95.94,467.53 430.43,467.53 			"/>
			<polygon class="st3" points="174.04,122.76 298.98,378.77 387.11,378.77 218.1,32.47 			"/>
			<linearGradient id="SVGID_3_" gradientUnits="userSpaceOnUse" x1="135.6986" y1="-48.5096" x2="346.6976" y2="321.7337">
				<stop  offset="0" style="stop-color:#FFFFFF"/>
				<stop  offset="1" style="stop-color:#FFFFFF;stop-opacity:0"/>
			</linearGradient>
			<polygon class="st4" points="196.02,77.71 342.95,378.77 387.11,378.77 218.1,32.47 			"/>
			<g class="st5">
				<polygon class="st0" points="174.04,122.76 5.77,467.53 47.96,467.53 195.13,165.98 				"/>
			</g>
		</g>
		<polygon class="st6" points="218.1,213.04 164.2,142.9 174.04,122.76 		"/>
		<polygon class="st6" points="95.94,467.53 137.22,378.77 164.2,378.77 		"/>
		<polygon class="st6" points="298.98,378.77 377.15,358.37 387.11,378.77 		"/>
		<linearGradient id="SVGID_4_" gradientUnits="userSpaceOnUse" x1="214.058" y1="195.4193" x2="377.1523" y2="195.4193">
			<stop  offset="0" style="stop-color:#FFFFFF"/>
			<stop  offset="1" style="stop-color:#FFFFFF;stop-opacity:0"/>
		</linearGradient>
		<polygon class="st7" points="218.1,32.47 214.06,40.75 377.15,358.37 		"/>
		<polygon class="st8" points="164.2,142.9 15.12,467.53 5.77,467.53 		"/>
		<polygon class="st9" points="95.94,467.53 430.43,467.53 426.04,458.55 		"/>
		
			<radialGradient id="SVGID_5_" cx="366.6511" cy="228.284" r="63.27" gradientTransform="matrix(0.144 0.0675 -0.6199 1.3228 224.9332 -41.9624)" gradientUnits="userSpaceOnUse">
			<stop  offset="0" style="stop-color:#FFFFFF"/>
			<stop  offset="1" style="stop-color:#FFFFFF;stop-opacity:0"/>
		</radialGradient>
		<path class="st10" d="M145.33,289.03c-21.66,46.22-43.3,81.78-48.33,79.43c-5.03-2.36,8.45-41.74,30.11-87.97
			c21.66-46.22,43.3-81.78,48.33-79.43C180.47,203.42,166.99,242.81,145.33,289.03z"/>
		
			<radialGradient id="SVGID_6_" cx="671.9935" cy="129.4369" r="44.2511" gradientTransform="matrix(-0.144 0.0675 0.6199 1.3228 259.9055 -41.9624)" gradientUnits="userSpaceOnUse">
			<stop  offset="0" style="stop-color:#FFFFFF"/>
			<stop  offset="1" style="stop-color:#FFFFFF;stop-opacity:0"/>
		</radialGradient>
		<path class="st11" d="M237,177.6c15.15,32.33,30.29,57.2,33.8,55.55c3.52-1.65-5.91-29.19-21.06-61.52
			c-15.15-32.33-30.29-57.2-33.8-55.55C212.42,117.73,221.85,145.27,237,177.6z"/>
	</g>
</g>
</svg>
